<?xml version="1.0" standalone="no"?>
<!DOCTYPE svg PUBLIC "-//W3C//DTD SVG 20010904//EN"
 "http://www.w3.org/TR/2001/REC-SVG-20010904/DTD/svg10.dtd">
<svg version="1.0" xmlns="http://www.w3.org/2000/svg"
 width="700.000000pt" height="700.000000pt" viewBox="0 0 700.000000 700.000000"
 preserveAspectRatio="xMidYMid meet">
<metadata>
Created by potrace 1.11, written by Peter Selinger 2001-2013
</metadata>
<g transform="translate(0.000000,700.000000) scale(0.100000,-0.100000)"
fill="#000000" stroke="none">
<path d="M825 6095 c-22 -6 -52 -18 -65 -28 -34 -23 -80 -95 -81 -126 -1 -14
-2 -513 -3 -1108 l-1 -1082 -34 -35 -33 -34 -1 -473 0 -472 33 -27 c31 -25 33
-31 36 -99 4 -89 29 -149 80 -187 l37 -29 836 -5 c824 -5 837 -6 906 -27 212
-67 320 -120 364 -181 l20 -29 -33 -69 c-18 -38 -80 -146 -138 -239 -89 -145
-506 -830 -541 -890 -7 -11 -26 -42 -43 -70 -17 -27 -64 -111 -106 -185 -42
-74 -85 -151 -96 -170 -32 -56 -262 -514 -262 -522 0 -5 28 -8 63 -8 l63 0 52
103 c127 249 232 432 467 812 139 224 413 669 462 750 54 89 132 263 141 316
12 64 10 365 -2 392 -8 16 26 17 639 17 631 0 648 0 631 -19 -28 -31 -36 -80
-37 -221 0 -263 30 -323 264 -526 62 -54 132 -117 157 -140 232 -218 314 -298
510 -493 231 -233 299 -303 385 -405 28 -32 55 -63 61 -70 52 -55 260 -358
325 -473 l24 -43 78 0 c42 0 77 2 77 4 0 12 -217 372 -296 491 -101 152 -164
234 -276 358 -40 45 -95 106 -123 137 -66 73 -447 453 -560 559 -50 46 -135
127 -190 180 -55 53 -143 134 -196 179 -108 92 -145 131 -174 184 -18 36 -18
38 -1 57 23 26 81 45 231 75 160 32 195 48 254 112 l50 54 738 0 c633 0 747 2
791 15 100 30 148 98 151 215 2 54 6 69 27 91 l24 25 0 472 0 473 -32 31 -33
32 -5 1116 -5 1115 -23 38 c-13 20 -45 49 -70 64 l-47 28 -2714 0 c-1847 0
-2728 -3 -2756 -10z m5489 -60 c23 -11 42 -31 56 -59 20 -42 20 -55 20 -1143
l0 -1101 34 -38 33 -38 0 -448 0 -449 -25 -28 c-21 -25 -25 -40 -27 -108 -3
-91 -21 -135 -66 -162 -29 -18 -58 -19 -385 -19 -195 0 -354 1 -354 1 0 1 -18
81 -40 177 -22 96 -49 216 -60 265 -50 232 -99 437 -105 443 -10 10 -2076 9
-2105 -1 -25 -8 -70 -45 -70 -56 0 -3 475 -6 1056 -6 581 0 1059 -2 1063 -5 4
-3 17 -48 29 -100 44 -200 113 -508 132 -589 10 -46 18 -87 16 -90 -6 -9 -694
-6 -702 2 -7 6 -9 33 -15 150 -1 26 -5 47 -9 47 -4 0 -20 -19 -35 -41 -46 -70
-104 -117 -175 -141 -65 -21 -68 -22 -889 -22 -744 -1 -827 1 -845 15 -38 30
-100 56 -236 102 -146 48 -206 62 -213 50 -3 -5 -6 -40 -8 -78 -1 -39 -4 -74
-6 -80 -4 -12 -732 -14 -734 -2 -3 14 12 94 48 252 19 88 37 169 39 180 2 11
15 67 28 125 13 58 22 108 19 113 -2 4 -17 14 -34 22 -27 14 -29 14 -30 -2 -1
-23 -1 -23 -38 -189 -17 -76 -33 -148 -35 -159 -3 -11 -14 -63 -26 -115 -12
-52 -24 -106 -26 -120 -3 -14 -9 -41 -13 -60 -5 -19 -12 -47 -15 -62 l-6 -27
-364 1 c-411 0 -411 0 -446 72 -15 31 -20 62 -20 117 0 73 -1 75 -35 102 l-35
28 0 450 0 450 35 36 34 35 0 1102 c0 704 3 1110 9 1127 12 31 65 77 95 84 43
10 173 10 2794 8 2459 -1 2654 -2 2687 -18z"/>
<path d="M830 6017 c-106 -67 -63 -227 62 -229 48 0 86 24 111 73 54 103 -74
219 -173 156z"/>
<path d="M6191 6023 c-62 -31 -89 -114 -55 -173 60 -101 212 -72 231 44 6 40
-19 98 -51 119 -34 22 -90 27 -125 10z"/>
<path d="M2245 5804 c-458 -48 -883 -346 -1083 -759 -68 -139 -113 -272 -127
-375 -3 -25 -8 -52 -11 -61 -9 -33 -12 -267 -3 -329 5 -36 11 -79 14 -96 18
-139 94 -339 186 -487 186 -300 499 -533 824 -613 91 -22 93 -23 177 -34 509
-70 1037 166 1324 592 160 238 234 473 239 758 4 200 -19 337 -86 515 -196
523 -690 878 -1249 898 -47 2 -139 -3 -205 -9z m297 -709 c270 -57 477 -263
532 -528 92 -443 -254 -847 -704 -824 -234 12 -440 138 -560 342 -81 137 -110
348 -69 505 92 356 447 580 801 505z"/>
<path d="M2260 4970 c-57 -14 -65 -19 -68 -41 -2 -14 5 -35 15 -47 18 -21 19
-21 75 -4 61 18 68 30 50 88 -7 20 -8 20 -72 4z"/>
<path d="M2415 4979 c-3 -8 -7 -29 -9 -46 -3 -30 -1 -33 28 -37 17 -3 48 -8
68 -11 41 -6 43 -4 53 46 8 41 7 41 -87 54 -36 6 -49 4 -53 -6z"/>
<path d="M2617 4896 c-18 -38 -19 -36 50 -84 42 -29 46 -28 78 10 l27 32 -24
18 c-27 22 -93 58 -106 58 -4 0 -16 -15 -25 -34z"/>
<path d="M2058 4872 c-59 -46 -67 -66 -37 -98 12 -13 27 -24 33 -24 6 1 31 18
55 39 46 41 48 54 13 98 l-17 22 -47 -37z"/>
<path d="M2790 4767 c-14 -12 -25 -26 -25 -32 0 -11 63 -105 70 -105 11 0 75
35 75 40 0 15 -75 120 -85 120 -5 0 -21 -11 -35 -23z"/>
<path d="M2365 4760 c-171 -19 -296 -164 -296 -343 0 -162 129 -305 295 -326
168 -22 341 99 371 260 11 62 12 71 4 121 -29 184 -191 308 -374 288z m25 -85
c0 -34 1 -35 40 -35 39 0 40 1 40 36 0 40 7 40 85 3 60 -28 118 -88 88 -89 -5
0 -16 -7 -26 -14 -19 -15 -20 -15 19 -74 1 -2 16 4 33 12 30 16 31 16 37 -11
18 -69 5 -183 -20 -183 -6 0 -20 7 -30 15 -18 13 -21 12 -38 -16 -21 -34 -14
-53 23 -64 18 -6 17 -9 -13 -36 -35 -33 -88 -62 -130 -73 -27 -6 -28 -5 -28
29 0 34 -1 35 -40 35 -39 0 -40 -1 -40 -35 0 -34 -1 -35 -27 -29 -44 11 -96
39 -127 70 l-28 28 26 21 c26 21 26 20 -11 84 -2 2 -11 -3 -21 -12 -27 -25
-40 -21 -48 16 -12 56 -13 81 -3 129 l11 48 30 -16 c16 -8 31 -14 32 -12 42
65 42 60 -2 86 -19 12 -6 33 38 65 34 24 99 54 123 56 4 1 7 -15 7 -34z"/>
<path d="M1916 4708 c-14 -24 -30 -56 -35 -71 -10 -26 -9 -29 24 -43 19 -7 38
-14 42 -14 8 0 63 98 63 111 0 4 -16 18 -35 33 l-34 26 -25 -42z"/>
<path d="M2883 4575 c-30 -13 -31 -15 -23 -47 6 -18 10 -45 10 -60 0 -29 2
-30 60 -31 40 -1 40 1 25 88 -11 66 -21 73 -72 50z"/>
<path d="M1847 4518 c-2 -7 -4 -42 -3 -78 l1 -65 39 3 c22 1 41 4 44 6 8 8 12
125 4 129 -23 13 -80 16 -85 5z"/>
<path d="M1883 4303 c-13 -2 -23 -11 -23 -18 0 -28 45 -125 58 -125 14 0 72
28 72 34 0 2 -10 29 -21 60 -23 58 -27 60 -86 49z"/>
<path d="M2820 4262 c0 -52 -99 -181 -179 -233 l-24 -15 45 -67 45 -67 59 41
c94 66 163 149 204 244 33 77 31 80 -65 96 -72 13 -85 13 -85 1z m110 -44 c0
-6 -14 -36 -30 -67 -34 -63 -98 -138 -149 -176 -34 -24 -34 -25 -49 -4 -12 18
-11 22 14 42 64 50 116 113 152 184 17 33 26 40 42 36 11 -3 20 -10 20 -15z"/>
<path d="M1983 4106 l-28 -25 50 -50 c27 -28 53 -51 58 -51 9 0 56 51 57 62 0
11 -84 88 -97 88 -7 0 -25 -11 -40 -24z"/>
<path d="M2157 3973 l-25 -38 22 -12 c39 -23 118 -45 126 -37 5 5 11 25 15 44
6 35 6 36 -47 55 -29 11 -56 21 -60 23 -4 2 -18 -14 -31 -35z"/>
<path d="M2428 3962 c-32 -2 -58 -4 -59 -5 0 -1 -3 -23 -6 -48 l-5 -47 72 4
c39 2 75 6 80 9 5 3 5 18 0 34 -4 16 -6 31 -4 34 12 12 -28 22 -78 19z"/>
<path d="M1011 5775 c-19 -6 -44 -24 -55 -39 -21 -27 -21 -34 -22 -1124 -2
-1043 -1 -1099 17 -1137 46 -102 55 -105 303 -105 195 0 209 1 194 16 -14 14
-45 17 -207 18 l-191 1 -37 38 -38 37 -3 1112 c-3 1229 -7 1139 60 1153 17 4
233 7 480 7 409 1 454 2 496 19 46 17 38 18 -458 17 -363 0 -515 -4 -539 -13z"/>
<path d="M2801 5770 c51 -17 144 -18 1637 -18 1190 0 1587 -3 1595 -11 9 -9
12 -294 13 -1129 0 -1015 -4 -1199 -24 -1204 -4 -1 -602 -2 -1330 -3 -1218 -2
-1324 -3 -1340 -18 -15 -16 -12 -17 48 -17 36 0 641 0 1345 0 1243 0 1280 0
1298 19 11 10 23 38 28 62 4 24 8 549 9 1167 l0 1123 -24 24 -24 24 -1643 -1
c-1591 0 -1641 0 -1588 -18z"/>
<path d="M1353 5702 c-22 -3 -23 -8 -24 -100 -1 -165 0 -244 3 -248 2 -1 9 1
16 5 10 6 14 49 15 157 l2 149 198 1 c130 1 203 6 210 13 6 6 18 11 26 11 8 0
12 3 8 6 -6 7 -414 12 -454 6z"/>
<path d="M3450 5702 c-414 -2 -452 -4 -432 -18 20 -14 169 -15 1377 -16 l1355
-1 1 -21 c3 -57 4 -442 2 -451 -2 -7 -372 -9 -1088 -9 -1041 2 -1084 1 -1075
-16 9 -17 62 -18 1105 -18 l1095 0 0 274 c0 151 -3 274 -7 275 -29 2 -1967 3
-2333 1z"/>
<path d="M4735 5130 c-234 -26 -450 -178 -556 -390 -94 -190 -95 -439 -3 -623
125 -249 360 -397 634 -399 573 -5 912 637 587 1111 -144 210 -405 329 -662
301z m212 -80 c32 -6 100 -32 152 -57 224 -107 359 -333 353 -587 -8 -340
-295 -618 -636 -618 -282 0 -518 173 -610 446 -33 99 -38 208 -14 323 72 344
406 563 755 493z"/>
<path d="M4682 4974 c-84 -22 -94 -29 -80 -62 21 -50 31 -55 71 -39 19 9 38
13 41 10 11 -12 36 20 35 46 -1 55 -8 60 -67 45z"/>
<path d="M4825 4980 c-11 -19 -18 -80 -8 -81 4 -1 17 -3 28 -4 11 -1 39 -5 61
-9 40 -7 42 -6 53 25 20 59 18 61 -80 74 -31 4 -49 2 -54 -5z"/>
<path d="M5027 4895 c-18 -39 -19 -38 47 -81 44 -29 55 -27 84 14 l21 29 -27
20 c-32 23 -87 53 -100 53 -4 0 -16 -16 -25 -35z"/>
<path d="M4494 4892 c-11 -9 -35 -28 -52 -42 -18 -14 -32 -32 -32 -41 0 -15
43 -59 58 -59 4 1 27 18 51 39 46 41 48 54 13 98 -16 21 -18 21 -38 5z"/>
<path d="M5200 4767 c-14 -12 -25 -26 -25 -32 1 -8 32 -60 62 -104 4 -6 83 31
83 39 0 15 -75 120 -85 120 -5 0 -21 -11 -35 -23z"/>
<path d="M4709 4753 c-232 -59 -330 -326 -193 -524 56 -81 167 -138 270 -139
255 -1 417 257 305 485 -71 143 -229 217 -382 178z m67 -75 c-1 -31 1 -33 37
-36 36 -3 37 -3 37 32 0 20 2 36 5 36 25 0 109 -39 144 -68 l44 -36 -27 -21
c-31 -24 -31 -28 -10 -60 15 -23 17 -24 45 -9 28 14 30 14 40 -13 13 -34 8
-158 -8 -174 -8 -8 -18 -6 -36 6 -20 13 -27 13 -33 3 -4 -7 -14 -23 -22 -35
-12 -20 -11 -23 18 -38 l32 -17 -27 -28 c-29 -30 -89 -62 -138 -74 -23 -6 -28
-4 -27 11 5 46 1 53 -35 53 -19 0 -36 -4 -36 -10 -1 -5 -2 -20 -3 -32 -1 -18
-6 -22 -26 -20 -33 5 -114 49 -140 78 l-22 22 31 16 30 16 -21 35 c-20 35 -21
35 -45 19 -17 -11 -28 -13 -35 -6 -15 15 -22 142 -9 175 11 27 11 27 41 12 29
-15 30 -15 46 17 16 31 16 32 -10 51 l-27 19 23 25 c30 32 115 76 159 82 4 1
6 -14 5 -31z"/>
<path d="M4322 4702 c-11 -21 -26 -50 -31 -65 -10 -26 -9 -29 23 -42 19 -8 41
-12 48 -10 7 3 24 29 37 57 l23 52 -28 23 c-39 31 -47 29 -72 -15z"/>
<path d="M5294 4576 l-31 -14 10 -58 c6 -33 14 -62 19 -65 7 -4 49 -4 79 0 7
1 -6 109 -16 134 -8 20 -19 21 -61 3z"/>
<path d="M4255 4508 c-5 -24 -9 -91 -6 -119 1 -14 9 -16 43 -13 23 2 44 6 46
9 7 7 10 125 3 129 -3 2 -23 6 -43 10 -33 6 -38 4 -43 -16z"/>
<path d="M4288 4303 c-23 -6 -23 -20 3 -88 12 -32 26 -55 35 -55 15 0 74 27
74 34 0 2 -10 29 -21 60 -23 58 -34 64 -91 49z"/>
<path d="M5230 4287 c0 -8 -14 -41 -30 -74 -28 -56 -97 -131 -162 -175 l-25
-17 40 -79 41 -79 45 29 c64 40 147 123 189 187 31 48 86 170 79 177 -2 3
-163 44 -171 44 -3 0 -6 -6 -6 -13z m83 -60 c16 -6 16 -10 -7 -55 -33 -65 -94
-141 -150 -187 -44 -36 -47 -37 -60 -20 -12 16 -6 26 58 89 41 41 83 95 100
128 16 32 32 56 35 54 3 -2 14 -6 24 -9z"/>
<path d="M4395 4106 l-30 -25 50 -51 c27 -28 56 -49 63 -48 7 2 22 17 32 34
l20 31 -41 41 c-22 23 -46 42 -52 42 -7 0 -25 -11 -42 -24z"/>
<path d="M4570 3978 c-11 -18 -20 -37 -20 -41 0 -11 79 -45 114 -49 26 -3 30
1 38 31 11 39 1 52 -47 69 -16 5 -38 13 -47 17 -13 5 -23 -2 -38 -27z"/>
<path d="M4889 3966 c-2 -3 -27 -6 -54 -7 -57 -3 -65 -10 -65 -60 l0 -36 53 2
c28 1 62 3 75 4 18 1 22 7 22 34 0 32 -20 73 -31 63z"/>
<path d="M3533 3148 c-30 -8 -82 -57 -84 -81 -1 -7 -3 -23 -4 -37 -4 -42 25
-88 70 -110 112 -54 221 68 155 175 -11 18 -28 36 -38 40 -43 18 -69 21 -99
13z"/>
<path d="M2679 2827 c-19 -12 -43 -40 -53 -61 -17 -35 -18 -45 -7 -85 14 -52
31 -75 74 -96 88 -44 197 25 197 125 0 108 -122 176 -211 117z m128 -29 c12
-6 29 -26 38 -45 52 -109 -105 -202 -174 -104 -42 59 -15 141 52 159 33 9 47
7 84 -10z"/>
<path d="M4324 2836 c-67 -29 -96 -112 -64 -182 46 -104 192 -110 243 -11 63
122 -53 247 -179 193z m98 -30 c38 -8 72 -67 64 -110 -15 -77 -97 -112 -162
-69 -41 26 -55 97 -28 139 18 27 68 55 88 49 6 -2 23 -6 38 -9z"/>
<path d="M2120 2752 c-43 -22 -71 -69 -72 -123 -1 -75 71 -140 147 -134 54 4
88 28 114 78 60 120 -67 241 -189 179z m103 -26 c36 -14 67 -54 67 -84 0 -83
-79 -135 -154 -101 -25 12 -56 63 -56 94 0 31 32 77 63 90 40 18 41 18 80 1z"/>
<path d="M4900 2763 c-28 -10 -69 -56 -80 -88 -19 -58 4 -128 53 -159 95 -63
225 13 215 125 -6 54 -31 92 -75 114 -31 15 -84 19 -113 8z m94 -38 c41 -19
57 -47 58 -98 1 -114 -170 -132 -201 -21 -14 50 23 114 74 127 33 8 36 8 69
-8z"/>
<path d="M821 2712 c-37 -20 -71 -73 -71 -110 0 -63 63 -122 130 -122 36 0 48
6 81 39 33 33 39 45 39 81 0 49 -27 93 -70 115 -38 20 -68 19 -109 -3z"/>
<path d="M6214 2720 c-48 -19 -80 -77 -76 -135 5 -54 63 -105 122 -105 76 0
140 81 119 151 -12 45 -18 53 -59 78 -37 22 -71 26 -106 11z"/>
<path d="M2790 1378 c-39 -27 -108 -125 -175 -253 -26 -49 -61 -115 -78 -145
-32 -57 -237 -468 -237 -475 0 -2 -15 -36 -34 -77 -62 -132 -173 -383 -180
-406 -7 -22 -6 -23 55 -20 69 3 63 -1 108 98 207 464 442 919 517 997 24 25
50 43 62 43 49 0 77 -71 82 -205 7 -180 4 -271 -15 -547 -5 -81 -31 -302 -41
-356 -6 -32 -5 -33 21 -30 31 3 31 2 39 120 3 43 9 115 12 161 8 103 8 835 1
902 -11 95 -19 130 -40 168 -11 20 -24 37 -28 37 -4 0 -14 2 -21 5 -8 3 -29
-5 -48 -17z"/>
<path d="M4589 1275 c-2 -2 -17 -6 -34 -9 -74 -13 -229 -93 -282 -146 -41 -41
-46 -68 -41 -245 4 -171 11 -184 97 -193 56 -5 91 3 256 56 82 26 131 36 192
38 45 2 84 0 87 -4 2 -4 7 -32 10 -62 10 -89 39 -180 111 -345 7 -16 43 -105
80 -197 l67 -168 59 0 c57 0 68 6 50 25 -7 9 -219 532 -265 655 l-16 45 62
-66 c60 -63 189 -261 357 -545 l66 -113 73 0 c39 -1 72 2 72 5 0 22 -194 356
-382 657 -122 196 -194 288 -253 323 -44 25 -45 27 -45 79 0 133 -80 203 -241
210 -42 2 -79 2 -80 0z m1 -276 c-126 -44 -212 -70 -217 -65 -6 6 103 60 166
82 37 13 88 23 116 23 49 0 49 -1 -65 -40z"/>
</g>
</svg>
