<?xml version="1.0" encoding="UTF-8" standalone="no"?>
<svg
   xmlns:dc="http://purl.org/dc/elements/1.1/"
   xmlns:cc="http://creativecommons.org/ns#"
   xmlns:rdf="http://www.w3.org/1999/02/22-rdf-syntax-ns#"
   xmlns:svg="http://www.w3.org/2000/svg"
   xmlns="http://www.w3.org/2000/svg"
   viewBox="0 0 753.96753 938.54626"
   height="938.54626"
   width="753.96753"
   xml:space="preserve"
   version="1.1"
   id="svg2"><metadata
     id="metadata8"><rdf:RDF><cc:Work
         rdf:about=""><dc:format>image/svg+xml</dc:format><dc:type
           rdf:resource="http://purl.org/dc/dcmitype/StillImage" /><dc:title></dc:title></cc:Work></rdf:RDF></metadata><defs
     id="defs6"><clipPath
       id="clipPath18"
       clipPathUnits="userSpaceOnUse"><path
         id="path20"
         d="m 0,750.837 603.174,0 L 603.174,0 0,0 0,750.837 Z" /></clipPath><clipPath
       id="clipPath28"
       clipPathUnits="userSpaceOnUse"><path
         id="path30"
         d="m 0,750.837 603.174,0 L 603.174,0 0,0 0,750.837 Z" /></clipPath></defs><g
     transform="matrix(1.25,0,0,-1.25,0,938.54625)"
     id="g10"><g
       id="g14"><g
         clip-path="url(#clipPath18)"
         id="g16"><path
           id="path22"
           style="fill:none;stroke:#ffffff;stroke-width:1;stroke-linecap:butt;stroke-linejoin:miter;stroke-miterlimit:10;stroke-dasharray:none;stroke-opacity:1"
           d="m 708.206,-204.231 -870,0 0,1094 870,0 0,-1094 z" /></g></g><g
       id="g24"><g
         clip-path="url(#clipPath28)"
         id="g26"><g
           transform="translate(385.9888,558.6875)"
           id="g32"><path
             id="path34"
             style="fill:#ffffff;fill-opacity:1;fill-rule:nonzero;stroke:none"
             d="m 0,0 c -3.403,0 -6.172,-2.768 -6.172,-6.171 0,-3.403 2.769,-6.171 6.172,-6.171 3.402,0 6.171,2.768 6.171,6.171 C 6.171,-2.768 3.402,0 0,0 m 0,-14.342 c -4.506,0 -8.172,3.665 -8.172,8.171 C -8.172,-1.666 -4.506,2 0,2 4.506,2 8.171,-1.666 8.171,-6.171 8.171,-10.677 4.506,-14.342 0,-14.342" /></g><g
           transform="translate(419.0327,554.0981)"
           id="g36"><path
             id="path38"
             style="fill:#ffffff;fill-opacity:1;fill-rule:nonzero;stroke:none"
             d="m 0,0 c -3.402,0 -6.171,-2.769 -6.171,-6.171 0,-3.403 2.769,-6.171 6.171,-6.171 3.403,0 6.172,2.768 6.172,6.171 C 6.172,-2.769 3.403,0 0,0 m 0,-14.342 c -4.506,0 -8.171,3.665 -8.171,8.171 C -8.171,-1.666 -4.506,2 0,2 4.506,2 8.172,-1.666 8.172,-6.171 8.172,-10.677 4.506,-14.342 0,-14.342" /></g><g
           transform="translate(290.8706,558.6875)"
           id="g40"><path
             id="path42"
             style="fill:#ffffff;fill-opacity:1;fill-rule:nonzero;stroke:none"
             d="m 0,0 c -3.403,0 -6.172,-2.768 -6.172,-6.171 0,-3.403 2.769,-6.171 6.172,-6.171 3.402,0 6.171,2.768 6.171,6.171 C 6.171,-2.768 3.402,0 0,0 m 0,-14.342 c -4.506,0 -8.172,3.665 -8.172,8.171 C -8.172,-1.666 -4.506,2 0,2 4.506,2 8.171,-1.666 8.171,-6.171 8.171,-10.677 4.506,-14.342 0,-14.342" /></g><g
           transform="translate(257.8257,554.0981)"
           id="g44"><path
             id="path46"
             style="fill:#ffffff;fill-opacity:1;fill-rule:nonzero;stroke:none"
             d="m 0,0 c -3.402,0 -6.171,-2.769 -6.171,-6.171 0,-3.403 2.769,-6.171 6.171,-6.171 3.402,0 6.171,2.768 6.171,6.171 C 6.171,-2.769 3.402,0 0,0 m 0,-14.342 c -4.506,0 -8.171,3.665 -8.171,8.171 C -8.171,-1.666 -4.506,2 0,2 4.506,2 8.171,-1.666 8.171,-6.171 8.171,-10.677 4.506,-14.342 0,-14.342" /></g><g
           transform="translate(193.1382,592.8232)"
           id="g48"><path
             id="path50"
             style="fill:#ffffff;fill-opacity:1;fill-rule:nonzero;stroke:none"
             d="m 0,0 c -2.53,0 -6.295,3.93 -6.295,7.573 l 0,125.114 c 0,3.799 4.143,4.313 6.295,4.313 l 51.65,0 c 2.343,1 4.733,2 7.163,2 L 0,139 c -3.754,0 -8.295,-1.632 -8.295,-6.313 l 0,-125.114 C -8.295,3.079 -3.861,-2 0,-2 l 22.731,0 c -0.73,1 -1.442,2 -2.149,2 L 0,0 Z" /></g><g
           transform="translate(480.2192,729.8232)"
           id="g52"><path
             id="path54"
             style="fill:#ffffff;fill-opacity:1;fill-rule:nonzero;stroke:none"
             d="m 0,0 c 2.16,0 2.624,-0.195 2.624,-4.313 l 0,-125.114 C 2.624,-131.554 2.819,-137 0,-137 l -153.141,0 c -0.707,0 -1.419,-1 -2.149,-2 L 0,-139 c 1.914,0 4.624,1.679 4.624,9.573 l 0,125.114 C 4.624,-0.775 4.503,2 0,2 l -191.371,0 c 2.431,0 4.819,-1 7.163,-2 L 0,0 Z" /></g><g
           transform="translate(338.9624,696.8232)"
           id="g56"><path
             id="path58"
             style="fill:#ffffff;fill-opacity:1;fill-rule:nonzero;stroke:none"
             d="m 0,0 c 0.436,0 0.868,-1 1.284,-2 l 127.597,0 0,32 -164.093,0 c 1.405,0 2.79,-1 4.152,-2 l 157.941,0 0,-28 L 0,0 Z" /></g><g
           transform="translate(209.8433,708.1846)"
           id="g60"><path
             id="path62"
             style="fill:#ffffff;fill-opacity:1;fill-rule:nonzero;stroke:none"
             d="m 0,0 0,16.639 23.053,0 c 1.363,1 2.747,2 4.152,2 L -2,18.639 -2,-2.245 C -1,-1.486 0,-0.734 0,0" /></g><g
           transform="translate(216.894,297.209)"
           id="g64"><path
             id="path66"
             style="fill:#ffffff;fill-opacity:1;fill-rule:nonzero;stroke:none"
             d="m 0,0 c 2.093,5.01 4.242,10.063 6.328,14.965 2.508,5.895 5.101,11.991 7.595,18.009 12.077,29.151 23.73,55.669 35.626,81.07 5.889,12.575 11.979,25.578 19.087,37.852 0.224,0.388 0.502,0.903 0.825,1.503 1.817,3.377 5.6,10.405 9.085,10.405 0.51,0 0.99,-0.149 1.47,-0.451 2.924,-1.853 3.098,-8.748 3.202,-12.867 0.021,-0.867 0.041,-1.635 0.08,-2.246 0.458,-7.129 -0.019,-14.444 -0.48,-21.519 l -0.119,-1.84 C 81.627,108.257 79.555,94.13 76.365,81.691 72.948,68.368 67.181,56.549 59.222,46.561 51.009,36.251 40.37,27.838 30.098,20.281 23.517,15.442 16.575,10.901 9.861,6.511 6.62,4.391 3.281,2.207 0,0 m 188.146,157.812 c -2.154,-0.5 -4.521,-1.245 -7.333,-2.295 -0.76,-0.286 -1.514,-0.577 -2.268,-0.87 -3.663,-1.416 -7.132,-2.757 -10.906,-3.134 3.487,2.291 7.561,4.07 10.558,5.218 2.238,0.857 4.59,1.292 6.994,1.292 0.97,0 1.957,-0.071 2.955,-0.211 m 95.238,-386.242 c 0.297,6.979 0.956,14.867 4.099,21.726 1.199,2.614 3.504,5.926 7.687,6.849 0.434,0.095 0.838,0.143 1.201,0.143 0.589,0 1.084,-0.122 1.503,-0.371 -1.743,-9.021 -3.983,-15.709 -7.038,-21.026 -1.648,-2.87 -4.214,-5.387 -7.452,-7.321 m 100.332,-18.31 c -1.862,-11.299 -7.519,-20.662 -15.93,-26.367 -3.703,-2.512 -7.944,-3.787 -12.607,-3.787 -6.081,0 -12.758,2.214 -18.845,6.242 10.07,20.156 10.14,43.022 8.411,58.7 -0.64,5.803 -2.901,15.77 -10.857,17.336 -0.602,0.119 -1.214,0.178 -1.82,0.178 -7.492,0 -12.987,-8.869 -15.002,-12.682 -5.079,-9.607 -4.934,-20.543 -4.794,-31.12 l 0.031,-2.503 c 0.11,-11.074 3.35,-21.151 9.904,-30.805 0.41,-0.603 0.838,-1.199 1.274,-1.79 -4.325,-4.078 -9.079,-6.787 -14.134,-8.052 -1.895,-0.474 -3.815,-0.714 -5.707,-0.714 -8.413,-0.001 -15.299,4.678 -17.969,12.211 -1.687,4.751 -1.984,10.142 -2.273,15.355 -0.057,1.042 -0.114,2.071 -0.181,3.081 -0.11,1.632 -0.185,3.266 -0.258,4.9 -0.021,0.426 -0.037,1.214 -0.053,1.936 l -0.01,0.459 c 8.011,4.088 12.045,15.146 13.745,21.423 1.796,6.639 3.634,14.596 3.658,23.279 0.003,0.951 0.05,1.954 0.1,3.017 0.147,3.122 0.314,6.661 -0.724,9.537 -0.49,1.356 -1.559,2.073 -3.09,2.073 -2.54,0 -5.552,-1.908 -6.613,-2.833 -5.956,-5.195 -6.648,-15.252 -7.154,-22.595 l -0.085,-1.221 c -0.403,-5.646 -0.685,-11.465 -0.863,-17.784 -0.734,-0.378 -1.395,-0.686 -2.015,-0.94 -4.465,-1.833 -8.588,-0.371 -11.723,4.105 -2.483,3.547 -3.475,8.04 -4.059,11.58 0.279,1.644 0.709,3.265 1.281,4.819 2.133,5.795 6.209,11.659 9.183,15.941 3.82,5.498 7.975,9.434 13.075,12.388 0.798,0.462 1.601,0.91 2.402,1.357 3.508,1.957 7.135,3.981 9.998,7.103 4.057,4.425 6.605,9.989 6.99,15.267 0.372,5.173 0.356,10.396 -0.046,15.104 -0.518,6.061 -2.383,11.85 -4.186,17.448 -0.366,1.132 -0.731,2.266 -1.085,3.404 -1.667,5.338 -3.506,10.723 -5.285,15.93 -2.547,7.459 -5.181,15.172 -7.351,22.873 -2.673,9.484 -3.891,19.489 -5.07,29.164 -0.466,3.833 -0.949,7.796 -1.514,11.666 -2.175,14.887 -4.65,28.571 -7.567,41.833 -5.656,25.705 -14.419,51.816 -26.791,79.825 -5.808,13.152 -12.339,25.778 -19.41,37.526 -3.408,5.664 -6.958,11.372 -10.39,16.893 l -0.483,0.776 c -0.621,0.998 -1.236,2.006 -1.853,3.017 -2.916,4.778 -5.932,9.717 -9.765,13.886 -1.881,2.046 -3.963,3.516 -6.357,4.487 l -0.023,0.292 c 0.122,4.107 -0.014,8.382 -3.089,11.544 -3.166,3.254 -9.067,3.741 -12.303,3.741 -0.887,0 -1.763,-0.036 -2.603,-0.108 -5.556,-0.473 -10.638,-3.299 -14.966,-5.91 l -0.123,-0.074 c -2.749,-1.657 -6.513,-3.928 -6.577,-7.699 l -0.009,-0.625 c -0.021,-0.122 -0.044,-0.377 -0.037,-1.328 l -0.048,-1.594 c -0.123,-3.99 -0.25,-8.117 0.245,-12.145 0.266,-2.158 0.475,-3.863 2.854,-4.836 0.962,-0.393 2.056,-0.585 3.344,-0.585 1.656,0 3.339,0.322 4.691,0.579 3.086,0.588 6.102,1.614 9.019,2.606 2.737,0.931 5.567,1.894 8.43,2.482 3.078,0.636 5.975,0.537 8.671,-0.298 0.094,-4.731 0.817,-8.778 2.207,-12.364 3.581,-9.234 7.449,-18.55 11.191,-27.558 1.648,-3.97 3.296,-7.938 4.924,-11.91 11.338,-27.648 20.639,-55.605 27.643,-83.097 7.457,-29.265 12.219,-58.807 14.154,-87.806 0.522,-7.807 1.088,-17.026 1.34,-26.203 0.05,-5.825 0.052,-11.881 0.007,-18.51 -0.544,-17.731 -2.853,-32.846 -7.056,-46.207 -7.204,-22.894 -23.095,-42.557 -45.959,-56.864 -5.237,-3.278 -10.3,-5.8 -15.439,-7.687 3.89,8.396 5.899,17.871 7.223,25.277 2.453,13.719 2.788,27.719 2.805,38.383 0.018,11.073 -0.142,22.939 -1.424,34.686 -2.795,25.611 -14.025,51.186 -30.811,70.168 -14.205,16.067 -35.442,24.283 -66.831,25.86 -2.226,0.113 -4.429,0.169 -6.549,0.169 -11.733,0 -22.179,-1.751 -31.047,-5.204 -9.439,-3.675 -16.727,-10.767 -21.663,-21.076 -5.313,-11.094 -6.743,-23.479 -7.394,-33.031 -0.792,-11.584 -0.728,-23.563 0.191,-35.605 2.353,-30.782 9.648,-55.489 21.684,-73.434 12.474,-18.605 36.319,-28.489 57.999,-35.705 6.995,-2.327 13.424,-4.184 19.538,-5.637 -1.649,-0.047 -3.355,-0.069 -5.147,-0.069 -5.085,0 -9.973,0.185 -14.498,0.386 -25.796,1.149 -51.511,7.673 -80.926,20.532 -14.183,6.2 -25.216,11.934 -34.677,18.024 4.115,9.956 5.205,22.527 3.428,39.506 -1.29,12.348 -6.554,23.904 -11.386,33.768 -5.651,11.534 -12.265,22.024 -19.661,31.178 -5.253,6.504 -11.432,12.169 -17.408,17.647 -0.846,0.776 -1.694,1.553 -2.54,2.333 0.212,1.314 0.428,2.629 0.669,3.938 2.525,13.654 6.957,25.505 13.172,35.224 1.136,1.775 2.359,3.526 3.738,5.347 1.431,0.349 2.866,0.694 4.307,1.017 4.285,0.964 9.183,2.42 13.025,5.914 2.144,1.951 3.253,4.675 4.325,7.309 0.211,0.517 0.42,1.031 0.635,1.532 0.827,1.93 1.161,4.071 1.485,6.143 0.05,0.329 0.102,0.657 0.155,0.982 6.308,4.719 13.02,9.165 19.514,13.468 4.74,3.14 9.641,6.387 14.313,9.694 9.04,6.398 20.664,15.118 30.39,25.859 8.422,9.299 14.831,20.882 19.05,34.427 7.958,25.547 8.617,53.143 8.617,81.531 0,6.95 -0.031,12.743 -0.415,18.739 -0.04,0.618 -0.07,1.279 -0.1,1.969 -0.191,4.299 -0.429,9.651 -3.491,12.631 -0.595,0.579 -1.277,0.872 -2.025,0.872 -3.457,0 -7.361,-6.294 -10.376,-11.777 -0.189,-0.346 -0.344,-0.629 -0.461,-0.833 C 54.429,142.85 43.396,117.715 32.728,93.407 L 30.197,87.646 C 21.695,68.311 13.432,48.48 5.439,29.304 2.175,21.471 -1.09,13.638 -4.378,5.817 -5.904,2.188 -6.771,-1.561 -7.611,-5.186 l -0.036,-0.157 c -8.893,-6.591 -17.181,-14.65 -23.988,-23.325 l -1.519,-0.371 c -0.343,-0.084 -0.686,-0.169 -1.03,-0.253 1.009,2.662 1.994,5.364 2.949,7.987 1.193,3.276 2.427,6.662 3.704,9.96 2.4,6.198 4.945,12.459 7.407,18.515 2.657,6.538 5.405,13.298 7.982,20.006 2.904,7.557 6.499,14.995 9.978,22.186 2.606,5.393 5.303,10.968 7.692,16.563 11.983,28.047 24.406,52.207 37.979,73.861 7.163,11.428 15.476,24.742 23.503,38.148 1.571,2.624 3.268,5.31 4.909,7.907 4.628,7.325 9.282,14.898 12.445,22.866 1.699,4.277 1.585,8.539 1.585,13.05 l 0,0.605 c 0,0.83 0.153,1.67 0.172,2.515 0.09,4.072 0.251,8.031 -1.446,11.846 -0.022,0.048 0.075,-0.109 0.053,-0.109 l 75.425,0 c -1.929,-2 -2.928,-4.355 -2.991,-8.031 -0.015,-0.874 -0.036,-1.627 -0.057,-2.508 -0.115,-4.853 -0.234,-9.81 0.624,-14.629 0.935,-5.265 3.804,-9.862 9.028,-14.535 2.045,-1.831 4.159,-3.619 6.203,-5.364 3.156,-2.694 6.421,-5.472 9.487,-8.404 2.988,-2.856 5.995,-5.694 9.004,-8.538 7.348,-6.942 14.946,-14.12 22.135,-21.42 10.388,-10.547 19.646,-20.144 27.764,-30.809 8.884,-11.673 16.219,-24.152 22.224,-34.822 15.292,-27.176 25.421,-51.15 31.875,-75.448 3.317,-12.491 5.865,-25.662 7.791,-40.266 2.056,-15.593 4.301,-29.486 6.865,-42.472 1.007,-5.097 1.856,-10.313 2.677,-15.357 1.44,-8.846 2.929,-17.992 5.322,-26.824 3.482,-12.856 9.103,-25.397 16.708,-37.276 5.844,-9.13 12.88,-17.622 19.685,-25.834 1.812,-2.185 3.62,-4.369 5.408,-6.563 4.614,-5.661 8.5,-10.764 11.882,-15.6 3.068,-4.385 5.004,-10.2 6.711,-15.33 l 0.495,-1.484 c 1.967,-5.852 3.469,-12.124 4.591,-19.175 0.231,-1.45 0.432,-3.021 0.607,-4.737 l -0.014,-0.52 c -0.057,-2.068 -0.153,-5.531 -0.461,-7.408 m -53.669,-18.876 c -7.116,6.785 -12.551,16.003 -15.332,26.023 -0.383,1.379 -0.68,2.878 -0.906,4.578 0.162,1.303 0.422,2.588 0.721,4.011 1.08,5.157 3.285,10.15 6.377,14.438 2.526,3.502 6.875,7.242 11.508,7.242 1.381,0 2.722,-0.337 3.986,-1.001 2.743,-1.442 4.331,-4.611 5.287,-6.869 0.854,-2.014 1.322,-4.236 1.692,-6.161 0.231,-1.186 0.366,-2.417 0.497,-3.608 l 0.035,-0.329 c -0.958,-10.975 -4.745,-22.611 -10.953,-33.65 -0.916,-1.628 -1.894,-3.198 -2.912,-4.674 M 182.88,-232.4 c -2.096,-2.669 -4.574,-5.097 -7.366,-7.217 -1.326,-0.171 -2.53,-0.297 -3.675,-0.385 -2.066,-0.156 -4.214,-0.236 -6.386,-0.236 -8.849,0 -18.331,1.235 -30.742,4.004 -29.204,6.511 -52.101,16.708 -68.052,30.305 -17.284,14.735 -24.066,40.782 -28.044,61.826 -1.172,6.2 -2.041,12.742 -2.657,19.999 -0.179,2.111 -0.293,4.273 -0.387,6.134 -0.016,0.346 -0.026,0.784 -0.03,1.224 0.138,3.175 0.401,6.405 0.804,9.878 1.442,12.522 4.844,23.056 10.114,31.309 8.219,12.875 24.199,19.404 47.497,19.404 5.368,0 11.064,-0.332 17.41,-1.016 13.941,-1.502 25.994,-4.544 35.825,-9.041 8.959,-4.097 17.366,-11.43 25.702,-22.419 14.746,-19.437 23.935,-44.97 25.877,-71.895 0.187,-2.606 0.293,-5.217 0.363,-7.255 -0.032,-0.288 -0.031,-0.899 -0.03,-2.354 0.001,-0.862 0.001,-1.694 -0.008,-1.94 -0.058,-1.602 -0.151,-3.2 -0.244,-4.8 l -0.015,-0.246 c -0.446,-7.546 -1.4,-15.199 -2.834,-22.75 -2.703,-14.233 -6.873,-24.569 -13.122,-32.529 m -190.668,24.638 c -7.376,5.316 -13.595,10.835 -19.002,16.866 -17.869,19.932 -22.018,45.222 -23.636,65.028 -0.274,3.369 -0.477,7.08 -0.639,11.678 l -0.041,1.033 c 0.017,0.422 0.036,0.937 0.055,1.574 0.054,1.744 0.15,3.485 0.244,5.228 l 0.007,0.12 c 0.088,1.569 0.204,3.201 0.346,4.862 1.147,-1.038 2.302,-2.064 3.448,-3.082 0.734,-0.651 1.463,-1.301 2.187,-1.948 9.062,-8.116 17.082,-17.379 23.837,-27.535 6.382,-9.599 12.139,-20.639 17.108,-32.814 1.941,-4.758 3.462,-10.062 4.52,-15.767 0.192,-1.035 0.341,-2.725 0.458,-5.168 -0.277,-1.768 -0.66,-3.597 -1.14,-5.438 -1.464,-5.602 -4.071,-10.523 -7.752,-14.637 m -43.069,-16.185 c -6.712,-0.413 -12.757,-0.614 -18.482,-0.614 -17.498,0 -32.751,1.969 -46.631,6.02 -44.845,13.086 -80.984,47.635 -94.31,90.162 -1.801,5.747 -3.177,11.923 -4.09,18.358 -0.149,1.032 -0.257,2.067 -0.352,3.036 0.199,1.461 0.475,3.004 0.824,4.586 1.661,7.527 5.456,14.755 11.28,21.484 9.995,11.547 25.854,20.019 44.657,23.853 6.458,1.318 12.834,1.986 18.951,1.986 11.532,0 21.341,-2.345 29.154,-6.97 3.235,-1.914 6.764,-4.646 10.502,-7.539 8.844,-6.846 18.869,-14.604 29.011,-14.604 1.588,0 3.155,0.193 4.664,0.576 3.557,-6.52 8.821,-11.851 13.551,-16.227 -0.043,-1.503 -0.076,-2.998 -0.099,-4.483 -0.348,-22.715 -0.782,-50.984 8.622,-75.03 5.15,-13.167 14.038,-25.261 26.419,-35.96 -8.393,-4.871 -19.716,-7.775 -33.671,-8.634 m -18.139,167.824 c 1.391,2.435 4.193,3.925 6.712,5.13 3.962,1.895 8.658,2.816 12.596,3.524 -1.948,-5.16 -4.445,-9.809 -7.564,-15.133 -1.792,-3.057 -4.402,-5.081 -7.763,-6.016 -1.953,3.616 -3.482,7.471 -4.548,11.465 0.181,0.345 0.371,0.688 0.567,1.03 m 20.951,-3.892 c 1.152,3.195 2.344,6.497 4.115,9.511 0.022,0.037 0.044,0.074 0.066,0.111 -3.779,-9.97 -6.222,-21.514 -7.436,-35.067 -1.099,1.031 -2.194,2.069 -3.274,3.126 -1.083,1.06 -2.169,2.209 -3.233,3.422 1.801,2.106 3.149,4.659 4.454,7.131 0.457,0.865 0.904,1.712 1.358,2.513 1.682,2.97 2.836,6.164 3.95,9.253 m 62.195,343.132 -9.603,-43.503 -41.121,0 c -4.793,0 -7.477,4.658 -7.477,8.522 l 0,6.78 -4,3.332 0,52.326 4,4.199 0,127.041 c 0,4.555 4.002,8.261 8.614,8.261 l 156.735,0.053 156.509,-0.053 c 4.671,0 8.142,-3.629 8.142,-8.261 l 0,-127.041 4,-4.199 0,-52.453 -3,-3.332 0,-6.653 c 0,-4.423 -3.001,-8.522 -7.304,-8.522 l -39.715,0 -11.694,52 -122.508,0 c -1.699,-1 -3.464,-2 -5.273,-4 l 124.58,0 10.345,-46 -41.609,0 c 0,1 -0.093,2.254 -0.179,3.189 -0.064,0.698 -0.119,1.426 -0.119,1.831 0,0.446 -0.07,1.176 -0.151,1.948 -0.166,1.592 -0.417,4.029 0.015,4.782 l -0.868,0.512 c -0.002,-0.002 -0.003,0.003 -0.005,0.001 -2.569,-4.492 -5.176,-8.138 -9.534,-10.135 -1.898,-0.868 -3.926,-1.128 -5.983,-2.128 l -96.498,0 c -2.826,3 -6.42,3.869 -9.853,5.108 -5.44,1.961 -11.263,4.095 -17.213,5.221 -0.003,10e-4 -0.014,0.064 -0.017,0.064 l -0.189,-0.951 c -0.168,0.032 -0.266,0.167 -0.286,0.22 0.179,-0.471 -0.01,-3.746 -0.161,-6.182 -0.078,-1.267 -0.14,-2.48 -0.183,-3.48 l -43.458,0 8.736,39.474 c -1.243,0.603 -2.468,1.365 -3.675,2.029 m 367.207,-488.552 c -1.563,5.637 -3.695,11.365 -6.335,17.024 -2.594,5.562 -6.456,10.432 -10.189,15.14 l -1.06,1.337 c -2.863,3.625 -5.843,7.249 -8.725,10.754 -5.648,6.866 -11.486,13.965 -16.686,21.368 -7.564,10.772 -13.589,23.003 -17.906,36.356 -3.383,10.46 -5.156,21.525 -6.872,32.226 -0.505,3.149 -1.01,6.295 -1.554,9.428 -0.741,4.275 -1.542,8.591 -2.316,12.765 -1.8,9.702 -3.661,19.734 -4.868,29.779 -1.737,14.458 -4.098,27.742 -7.217,40.612 -5.952,24.55 -15.728,48.734 -30.766,76.11 -7.788,14.175 -14.705,25.385 -21.765,35.278 -6.212,8.706 -13.543,16.517 -20.634,24.071 -2.229,2.376 -4.463,4.756 -6.674,7.174 -5.514,6.026 -11.588,11.694 -17.461,17.175 -3.177,2.963 -6.462,6.028 -9.613,9.109 -4.502,4.401 -9.157,8.952 -14.003,13.393 -1.675,1.535 -3.458,2.991 -5.182,4.398 -2.472,2.018 -5.028,4.105 -7.275,6.44 -1.424,1.478 -2.654,3.311 -3.873,5.767 -0.205,0.413 -0.396,0.867 -0.592,1.411 1.962,2.391 5.66,3.448 8.303,4.038 1.523,0.34 3.092,0.628 4.607,0.906 3.903,0.716 7.939,1.206 11.675,2.916 3.272,1.498 5.539,4.074 7.455,7.074 l 87.118,0 0,0.503 c 6,0.125 11,5.02 11,11.019 l 0,5.501 3,3.332 0,54.805 -4,4.199 0,125.841 c 0,6.209 -4.833,11.261 -11.079,11.261 L 121.298,453.128 -35.5,453.075 c -6.266,0 -11.551,-5.052 -11.551,-11.261 l 0,-125.841 -4,-4.199 0,-54.932 4,-3.332 0,-5.374 c 0,-6.302 4.373,-11.522 10.035,-11.522 l 91.159,0 c 6.02,-1 11.854,-3.078 17.503,-5.114 3.185,-1.149 6.267,-2.768 9.161,-5.059 1.035,-0.821 1.929,-1.991 2.731,-3.702 -1.954,-5.551 -5.302,-10.798 -8.54,-15.904 -1.2,-1.894 -2.335,-3.667 -3.385,-5.446 C 63.906,188.332 56.081,175.458 48.356,163.11 32.302,137.441 19.313,113.315 8.647,89.347 3.64,78.094 -1.813,66.187 -9.029,50.736 c -3.101,-6.635 -5.707,-13.594 -8.228,-20.324 -2.325,-6.207 -4.728,-12.624 -7.51,-18.759 -2.86,-6.306 -5.273,-12.902 -7.606,-19.281 -2.44,-6.668 -4.962,-13.562 -7.993,-20.118 -0.475,-1.027 -1.019,-2.107 -1.754,-3.479 -1.734,-0.422 -3.778,-0.789 -5.938,-1.176 -9.892,-1.773 -23.44,-4.2 -23.748,-15.885 -0.03,-1.148 -0.054,-2.297 -0.075,-3.446 -0.136,-0.194 -0.186,-0.445 -0.213,-0.575 -0.157,-0.768 -0.541,-6.824 0.209,-8.405 0.023,-1.158 0.051,-2.315 0.095,-3.472 0.061,-1.555 0.283,-3.188 0.681,-4.97 -2.84,0.216 -5.876,0.997 -8.827,2.273 -6.51,2.818 -12.381,7.235 -18.059,11.506 -1.932,1.453 -3.93,2.956 -5.91,4.361 -9.841,6.989 -21.904,10.533 -35.851,10.533 -3.848,0 -7.93,-0.269 -12.128,-0.797 -18.282,-2.302 -35.071,-9.721 -47.275,-20.891 -6.187,-5.662 -11.015,-12.72 -13.962,-20.411 -2.563,-6.685 -3.012,-13.536 -3.088,-19.962 l -0.037,-0.559 c -0.189,-0.421 -0.236,-7.285 0.095,-9.285 l -0.015,0 c 0.354,-22 7.597,-44.14 20.943,-63.967 12.652,-18.794 30.129,-34.355 50.544,-45.45 19.25,-10.463 41.415,-16.477 64.097,-17.621 2.816,-0.142 5.819,-0.155 8.927,-0.155 8.13,0 16.415,0.522 23.446,1.005 8.134,0.557 20.167,1.986 30.702,7.803 3.798,2.095 7.119,4.774 9.879,7.954 2.921,-2.091 5.928,-4.088 8.941,-5.947 11.777,-7.261 24.196,-12.926 34.791,-17.513 15.069,-6.523 27.907,-10.988 40.403,-14.058 12.41,-3.047 25.886,-4.806 41.195,-5.377 3.791,-0.142 7.143,-0.21 10.244,-0.21 11.2,0 20.216,0.898 28.373,2.824 6.96,1.644 13.541,4.623 19.04,8.62 4.919,0.593 9.636,1.621 14.022,3.055 12.427,4.068 23.813,12.686 31.297,18.815 9.769,8 17.764,17.348 23.761,27.787 13.795,24.011 15.155,53.096 15.345,78.473 l 0.007,1.097 c 0.178,5.796 0.176,11.869 -0.007,18.568 -0.215,24.858 -1.352,45.259 -3.578,64.204 -3.198,27.231 -9.234,56.04 -17.941,85.625 -5.168,17.557 -11.381,35.449 -18.994,54.697 -1.555,3.935 -3.227,7.897 -4.843,11.73 -2.24,5.31 -4.556,10.801 -6.594,16.288 l -0.846,2.291 c -1.231,3.348 -2.505,6.81 -3.997,10.138 -0.206,0.462 -0.418,0.924 -0.631,1.388 4.98,-3.579 8.632,-9.506 12.174,-15.255 0.513,-0.831 1.02,-1.652 1.524,-2.457 8.086,-12.889 15.296,-24.553 21.671,-36.783 12.759,-24.485 23.146,-50.754 30.872,-78.079 8.097,-28.641 12.42,-58.031 15.582,-83.001 1.538,-12.155 4.603,-24.389 9.94,-39.67 2.816,-8.064 4.854,-14.288 6.605,-20.184 0.453,-1.526 0.931,-3.039 1.409,-4.548 0.909,-2.877 1.848,-5.849 2.571,-8.816 -0.332,-1.042 -0.845,-2.515 -1.559,-3.778 -1.311,-2.314 -2.93,-4.547 -4.682,-6.458 -2.504,-2.73 -5.996,-4.582 -9.373,-6.372 -1.4,-0.742 -2.847,-1.509 -4.18,-2.319 -5.258,-3.196 -9.014,-8.236 -12.121,-12.71 -3.361,-4.837 -7.05,-10.573 -8.928,-16.437 -1.154,-3.605 -1.307,-7.458 -1.366,-11.098 l -0.045,-2.44 c -0.089,-4.544 -0.181,-9.245 0.191,-13.821 0.513,-6.38 2.87,-21.22 13.614,-21.22 l 0.2,0.002 c 1.805,0.032 3.556,0.385 5.215,1.051 l -0.003,-0.818 0.007,-3.246 c 0.016,-10.953 0.033,-22.28 2.398,-32.919 2.089,-9.4 9.587,-15.011 20.058,-15.011 0.96,0 1.947,0.048 2.934,0.144 8.325,0.806 16.09,6.094 23.089,15.72 6.635,-6.161 14.207,-9.852 21.933,-10.687 0.87,-0.094 1.751,-0.142 2.619,-0.142 12.002,0 21.062,8.94 25.539,17.306 5.057,9.445 5.502,20.107 5.531,31.114 0.042,14.997 -1.321,26.661 -4.422,37.819" /></g><g
           transform="translate(494.3979,731.7153)"
           id="g68"><path
             id="path70"
             style="fill:#ffffff;fill-opacity:1;fill-rule:nonzero;stroke:none"
             d="m 0,0 c -4.03,0 -7.309,3.278 -7.309,7.308 0,4.029 3.279,7.308 7.309,7.308 4.029,0 7.308,-3.279 7.308,-7.308 C 7.308,3.278 4.029,0 0,0" /></g><g
           transform="translate(495.3159,538.9551)"
           id="g72"><path
             id="path74"
             style="fill:#ffffff;fill-opacity:1;fill-rule:nonzero;stroke:none"
             d="m 0,0 c -4.03,0 -7.309,3.278 -7.309,7.308 0,4.029 3.279,7.307 7.309,7.307 4.029,0 7.308,-3.278 7.308,-7.307 C 7.308,3.278 4.029,0 0,0" /></g><g
           transform="translate(182.4624,731.7153)"
           id="g76"><path
             id="path78"
             style="fill:#ffffff;fill-opacity:1;fill-rule:nonzero;stroke:none"
             d="m 0,0 c -4.03,0 -7.31,3.278 -7.31,7.308 0,4.029 3.28,7.308 7.31,7.308 4.029,0 7.307,-3.279 7.307,-7.308 C 7.307,3.278 4.029,0 0,0" /></g><g
           transform="translate(181.5444,538.9551)"
           id="g80"><path
             id="path82"
             style="fill:#ffffff;fill-opacity:1;fill-rule:nonzero;stroke:none"
             d="m 0,0 c -4.03,0 -7.309,3.278 -7.309,7.308 0,4.029 3.279,7.307 7.309,7.307 4.029,0 7.307,-3.278 7.307,-7.307 C 7.307,3.278 4.029,0 0,0" /></g><g
           transform="translate(338.354,563.7388)"
           id="g84"><path
             id="path86"
             style="fill:#ffffff;fill-opacity:1;fill-rule:nonzero;stroke:none"
             d="m 0,0 c -4.03,0 -7.309,3.278 -7.309,7.308 0,4.029 3.279,7.307 7.309,7.307 4.029,0 7.308,-3.278 7.308,-7.307 C 7.308,3.278 4.029,0 0,0" /></g><g
           transform="translate(443.7896,653.1782)"
           id="g88"><path
             id="path90"
             style="fill:#ffffff;fill-opacity:1;fill-rule:nonzero;stroke:none"
             d="M 0,0 -0.018,0.5 C -0.116,3.248 -0.559,5.961 -1.331,8.564 L -1.59,8.487 -1.597,8.517 -1.82,8.454 -1.953,8.901 -6.239,7.627 -6.124,7.238 -6.148,7.231 -6.134,7.139 -6.573,7.009 C -5.929,4.836 -5.561,2.58 -5.48,0.304 l 0.418,0.014 0.038,-0.233 0.046,0.003 0.01,-0.266 L 0,0 Z" /></g><g
           transform="translate(440.6665,666.5024)"
           id="g92"><path
             id="path94"
             style="fill:#ffffff;fill-opacity:1;fill-rule:nonzero;stroke:none"
             d="m 0,0 -0.22,0.449 c -1.205,2.463 -2.713,4.76 -4.482,6.828 L -4.907,7.101 -4.927,7.126 -5.104,6.978 -5.407,7.332 -8.803,4.423 -8.539,4.115 -8.561,4.097 -8.51,4.019 -8.856,3.722 c 1.472,-1.721 2.727,-3.632 3.729,-5.678 l 0.377,0.185 0.129,-0.199 0.043,0.022 0.117,-0.239 L 0,0 Z" /></g><g
           transform="translate(432.3892,677.3984)"
           id="g96"><path
             id="path98"
             style="fill:#ffffff;fill-opacity:1;fill-rule:nonzero;stroke:none"
             d="M 0,0 -0.384,0.32 C -2.495,2.083 -4.81,3.566 -7.262,4.729 L -7.377,4.486 -7.403,4.5 -7.506,4.292 -7.928,4.492 -9.843,0.452 -9.477,0.278 -9.488,0.254 -9.41,0.204 -9.606,-0.209 c 2.046,-0.972 3.971,-2.206 5.72,-3.666 l 0.269,0.321 0.198,-0.129 0.029,0.037 0.204,-0.169 L 0,0 Z" /></g><g
           transform="translate(420.3901,683.9756)"
           id="g100"><path
             id="path102"
             style="fill:#ffffff;fill-opacity:1;fill-rule:nonzero;stroke:none"
             d="m 0,0 -0.48,0.136 c -2.648,0.751 -5.365,1.163 -8.078,1.226 l -0.006,-0.27 -0.031,0.003 -0.009,-0.232 -0.465,0.011 -0.494,-4.471 0.016,-0.009 0,-0.028 0.481,-0.014 0.183,-0.456 c 2.265,-0.053 4.622,-0.396 6.816,-1.017 l 0.162,0.402 0.257,-0.036 0.024,0.047 L -1.36,-4.781 0,0 Z" /></g><g
           transform="translate(407.1987,680.1387)"
           id="g104"><path
             id="path106"
             style="fill:#ffffff;fill-opacity:1;fill-rule:nonzero;stroke:none"
             d="M 0,0 0.264,0.038 -0.445,4.956 -0.94,4.884 C -3.667,4.491 -6.317,3.76 -8.818,2.713 l 0.104,-0.249 -0.027,-0.01 0.087,-0.215 -0.432,-0.181 1.729,-4.124 0.372,0.156 0.009,-0.025 0.09,0.024 0.176,-0.421 c 2.091,0.874 4.294,1.482 6.55,1.807 L -0.22,-0.11 0.009,-0.049 0,0 Z" /></g><g
           transform="translate(396.2964,676.1753)"
           id="g108"><path
             id="path110"
             style="fill:#ffffff;fill-opacity:1;fill-rule:nonzero;stroke:none"
             d="M 0,0 -0.027,0.041 0.197,0.183 -2.455,4.385 -2.878,4.118 C -5.21,2.645 -7.332,0.898 -9.187,-1.073 l 0.198,-0.185 -0.022,-0.02 0.166,-0.161 -0.32,-0.341 3.258,-3.063 0.276,0.294 0.021,-0.02 0.073,0.06 0.332,-0.313 c 1.552,1.648 3.316,3.101 5.244,4.319 L -0.184,-0.149 0,0 Z" /></g><g
           transform="translate(388.1665,667.7114)"
           id="g112"><path
             id="path114"
             style="fill:#ffffff;fill-opacity:1;fill-rule:nonzero;stroke:none"
             d="M 0,0 -0.349,0.232 -0.241,0.444 -0.282,0.47 -0.135,0.691 -4.27,3.448 -4.547,3.032 C -6.074,0.739 -7.301,-1.72 -8.192,-4.279 l 0.254,-0.089 -0.011,-0.028 0.219,-0.079 -0.154,-0.441 4.222,-1.47 0.133,0.382 0.026,-0.01 0.042,0.084 0.43,-0.151 C -2.282,-3.941 -1.263,-1.895 0,0" /></g><g
           transform="translate(383.2075,650.2881)"
           id="g116"><path
             id="path118"
             style="fill:#ffffff;fill-opacity:1;fill-rule:nonzero;stroke:none"
             d="M 0,0 0.452,0.038 C 0.264,2.297 0.361,4.581 0.742,6.826 L 0.331,6.896 0.343,7.132 0.294,7.139 0.339,7.402 -4.561,8.235 -4.645,7.743 C -5.106,5.025 -5.542,2.279 -5.313,-0.421 l -0.051,0.023 0,-0.029 0.552,0.016 0.199,-0.465 4.532,0.377 0.006,0.403 0.051,0.002 L 0,0 Z" /></g><g
           transform="translate(386.5522,639.0928)"
           id="g120"><path
             id="path122"
             style="fill:#ffffff;fill-opacity:1;fill-rule:nonzero;stroke:none"
             d="m 0,0 -0.034,0.087 0.399,0.22 c -1.09,1.98 -1.931,4.106 -2.501,6.317 L -2.54,6.52 -2.626,6.741 -2.673,6.728 -2.739,6.986 -7.553,5.751 -7.429,5.267 C -6.742,2.595 -5.731,0.04 -4.424,-2.33 l 0.236,0.13 0.013,-0.028 0.205,0.11 0.225,-0.408 3.915,2.159 -0.195,0.354 L 0,0 Z" /></g><g
           transform="translate(394.4399,630.0537)"
           id="g124"><path
             id="path126"
             style="fill:#ffffff;fill-opacity:1;fill-rule:nonzero;stroke:none"
             d="m 0,0 -0.321,0.244 0.016,0.022 -0.067,0.066 0.275,0.363 c -1.805,1.366 -3.439,2.964 -4.856,4.75 L -5.28,5.186 -5.449,5.353 -5.487,5.321 -5.653,5.53 -9.545,2.44 -9.234,2.049 c 1.715,-2.16 3.679,-4.082 5.838,-5.713 l 0.162,0.215 0.024,-0.021 0.144,0.184 0.37,-0.28 L 0,0 Z" /></g><g
           transform="translate(405.02,625.2788)"
           id="g128"><path
             id="path130"
             style="fill:#ffffff;fill-opacity:1;fill-rule:nonzero;stroke:none"
             d="m 0,0 -0.392,0.09 0.007,0.028 -0.089,0.033 0.104,0.444 C -2.573,1.106 -4.718,1.9 -6.743,2.954 L -6.935,2.585 -7.156,2.668 -7.179,2.623 -7.415,2.746 -9.712,-1.661 -9.268,-1.892 c 2.443,-1.272 5.021,-2.227 7.662,-2.838 l 0.06,0.261 0.028,-0.009 0.056,0.228 0.455,-0.106 L 0,0 Z" /></g><g
           transform="translate(417.0669,620.52)"
           id="g132"><path
             id="path134"
             style="fill:#ffffff;fill-opacity:1;fill-rule:nonzero;stroke:none"
             d="M 0,0 -0.042,0.231 0.417,0.32 -0.438,4.708 -0.834,4.631 -0.839,4.658 -0.932,4.653 -1.019,5.101 C -3.24,4.67 -5.521,4.521 -7.8,4.659 L -7.825,4.243 -8.061,4.229 -8.063,4.178 -8.329,4.194 -8.63,-0.765 l 0.499,-0.03 c 0.667,-0.041 1.333,-0.061 1.998,-0.061 2.079,0 4.142,0.197 6.154,0.59 L -0.029,-0.004 0,0 Z" /></g><g
           transform="translate(303.3491,653.1782)"
           id="g136"><path
             id="path138"
             style="fill:#ffffff;fill-opacity:1;fill-rule:nonzero;stroke:none"
             d="M 0,0 -0.018,0.5 C -0.116,3.25 -0.558,5.963 -1.33,8.564 L -1.589,8.487 -1.596,8.517 -1.819,8.454 -1.952,8.901 -6.239,7.627 -6.124,7.238 -6.148,7.231 -6.134,7.139 -6.572,7.009 C -5.928,4.836 -5.56,2.58 -5.479,0.304 l 0.417,0.014 0.038,-0.233 0.046,0.003 0.01,-0.266 L 0,0 Z" /></g><g
           transform="translate(300.2271,666.5024)"
           id="g140"><path
             id="path142"
             style="fill:#ffffff;fill-opacity:1;fill-rule:nonzero;stroke:none"
             d="M 0,0 -0.22,0.449 C -1.425,2.913 -2.934,5.21 -4.703,7.277 L -4.908,7.102 -4.927,7.126 -5.105,6.978 -5.408,7.332 -8.804,4.423 -8.54,4.115 -8.561,4.097 -8.51,4.019 -8.856,3.722 c 1.472,-1.721 2.727,-3.632 3.729,-5.678 l 0.376,0.185 0.129,-0.199 0.044,0.023 0.117,-0.24 L 0,0 Z" /></g><g
           transform="translate(291.9487,677.3984)"
           id="g144"><path
             id="path146"
             style="fill:#ffffff;fill-opacity:1;fill-rule:nonzero;stroke:none"
             d="m 0,0 -0.384,0.32 c -2.11,1.763 -4.424,3.246 -6.877,4.409 L -7.376,4.486 -7.402,4.5 -7.505,4.292 -7.927,4.492 -9.842,0.452 -9.476,0.278 -9.487,0.254 -9.41,0.204 -9.606,-0.209 c 2.049,-0.974 3.974,-2.207 5.72,-3.666 l 0.269,0.321 0.199,-0.129 0.029,0.037 0.204,-0.169 L 0,0 Z" /></g><g
           transform="translate(271.3931,685.3374)"
           id="g148"><path
             id="path150"
             style="fill:#ffffff;fill-opacity:1;fill-rule:nonzero;stroke:none"
             d="m 0,0 -0.007,-0.27 -0.03,0.003 -0.009,-0.232 -0.466,0.011 -0.273,-4.47 0.235,-0.01 0,-0.028 0.26,-0.014 0.074,-0.456 C 2.048,-5.519 4.351,-5.861 6.545,-6.483 L 6.68,-6.081 6.922,-6.117 6.939,-6.069 7.2,-6.143 8.557,-1.362 8.076,-1.226 C 5.429,-0.475 2.713,-0.063 0,0" /></g><g
           transform="translate(266.313,685.0947)"
           id="g152"><path
             id="path154"
             style="fill:#ffffff;fill-opacity:1;fill-rule:nonzero;stroke:none"
             d="m 0,0 -0.495,-0.072 c -2.727,-0.394 -5.376,-1.124 -7.877,-2.171 l 0.104,-0.249 -0.027,-0.01 0.087,-0.215 -0.432,-0.181 1.728,-4.124 0.372,0.156 0.01,-0.025 0.091,0.024 0.175,-0.421 c 2.091,0.874 4.294,1.482 6.55,1.807 L 0.227,-5.066 0.454,-5.005 0.445,-4.956 0.71,-4.918 0,0 Z" /></g><g
           transform="translate(246.8442,674.897)"
           id="g156"><path
             id="path158"
             style="fill:#ffffff;fill-opacity:1;fill-rule:nonzero;stroke:none"
             d="m 0,0 0.168,-0.162 -0.32,-0.34 3.257,-3.063 0.277,0.294 0.02,-0.02 0.073,0.06 0.332,-0.312 C 5.36,-1.894 7.126,-0.44 9.052,0.775 L 8.829,1.129 9.013,1.278 8.985,1.319 9.21,1.461 6.556,5.664 6.134,5.396 C 3.804,3.924 1.682,2.178 -0.174,0.205 L 0.022,0.021 0,0 Z" /></g><g
           transform="translate(239.7778,663.3159)"
           id="g160"><path
             id="path162"
             style="fill:#ffffff;fill-opacity:1;fill-rule:nonzero;stroke:none"
             d="m 0,0 0.219,-0.08 -0.154,-0.441 4.222,-1.47 0.133,0.383 0.026,-0.01 0.042,0.083 0.43,-0.15 C 5.667,0.455 6.687,2.5 7.949,4.396 L 7.601,4.627 7.708,4.839 7.667,4.865 7.814,5.086 3.68,7.843 3.402,7.427 C 1.873,5.132 0.646,2.672 -0.243,0.116 L 0.012,0.027 0,0 Z" /></g><g
           transform="translate(242.7671,649.7896)"
           id="g164"><path
             id="path166"
             style="fill:#ffffff;fill-opacity:1;fill-rule:nonzero;stroke:none"
             d="M 0,0 -0.034,0.403 -0.005,0.405 0,0.499 0.452,0.536 C 0.264,2.797 0.361,5.081 0.743,7.324 L 0.331,7.394 0.343,7.631 0.295,7.638 0.34,7.901 -4.561,8.734 -4.645,8.241 C -5.106,5.522 -5.322,2.776 -5.092,0.078 l 0.168,0.022 0,-0.029 0.333,0.017 0.089,-0.466 L 0,0 Z" /></g><g
           transform="translate(246.2827,638.7256)"
           id="g168"><path
             id="path170"
             style="fill:#ffffff;fill-opacity:1;fill-rule:nonzero;stroke:none"
             d="m 0,0 -0.194,0.354 0.024,0.013 -0.034,0.087 0.399,0.22 C -0.896,2.655 -1.737,4.781 -2.306,6.991 L -2.71,6.887 -2.796,7.108 -2.843,7.095 -2.909,7.353 -7.723,6.118 -7.599,5.634 C -6.911,2.959 -5.9,0.403 -4.594,-1.963 l 0.236,0.13 0.012,-0.027 0.206,0.11 0.225,-0.409 L 0,0 Z" /></g><g
           transform="translate(253.6948,630.3193)"
           id="g172"><path
             id="path174"
             style="fill:#ffffff;fill-opacity:1;fill-rule:nonzero;stroke:none"
             d="M 0,0 -0.066,0.065 0.209,0.43 C -1.597,1.795 -3.23,3.393 -4.647,5.179 L -4.975,4.92 -5.144,5.087 -5.182,5.055 -5.348,5.264 -9.239,2.175 -8.929,1.783 c 1.715,-2.16 3.679,-4.082 5.839,-5.712 l 0.161,0.214 0.025,-0.021 0.143,0.184 0.37,-0.28 2.697,3.566 -0.323,0.245 L 0,0 Z" /></g><g
           transform="translate(264.1958,625.3965)"
           id="g176"><path
             id="path178"
             style="fill:#ffffff;fill-opacity:1;fill-rule:nonzero;stroke:none"
             d="M 0,0 -0.089,0.033 0.015,0.477 C -2.188,0.989 -4.332,1.782 -6.358,2.836 L -6.55,2.467 -6.771,2.551 -6.794,2.505 -7.03,2.628 -9.327,-1.778 -8.883,-2.009 c 2.443,-1.273 5.02,-2.228 7.659,-2.839 l 0.061,0.261 0.029,-0.009 0.056,0.228 0.455,-0.106 1.008,4.356 -0.392,0.091 L 0,0 Z" /></g><g
           transform="translate(276.189,625.228)"
           id="g180"><path
             id="path182"
             style="fill:#ffffff;fill-opacity:1;fill-rule:nonzero;stroke:none"
             d="M 0,0 -0.396,-0.077 -0.4,-0.05 -0.493,-0.055 -0.58,0.393 c -2.222,-0.431 -4.502,-0.581 -6.781,-0.442 l -0.026,-0.416 -0.235,-0.014 -0.002,-0.051 -0.267,0.016 -0.3,-4.959 0.499,-0.03 c 0.667,-0.041 1.333,-0.061 1.998,-0.061 2.079,0 4.141,0.197 6.154,0.59 L 0.409,-4.712 0.438,-4.708 0.396,-4.477 0.855,-4.388 0,0 Z" /></g><g
           transform="translate(411.0698,615.1284)"
           id="g184"><path
             id="path186"
             style="fill:#ffffff;fill-opacity:1;fill-rule:nonzero;stroke:none"
             d="m 0,0 c -20.602,0 -37.301,16.701 -37.301,37.3 0,20.599 16.699,37.3 37.301,37.3 20.599,0 37.299,-16.701 37.299,-37.3 C 37.299,16.701 20.599,0 0,0 m 0,78.689 c -22.823,0 -41.391,-18.567 -41.391,-41.389 0,-22.822 18.568,-41.389 41.391,-41.389 22.821,0 41.388,18.567 41.388,41.389 0,22.822 -18.567,41.389 -41.388,41.389" /></g><g
           transform="translate(270.6294,612.4189)"
           id="g188"><path
             id="path190"
             style="fill:#ffffff;fill-opacity:1;fill-rule:nonzero;stroke:none"
             d="m 0,0 c -22.062,0 -40.01,17.948 -40.01,40.009 0,22.061 17.948,40.01 40.01,40.01 22.061,0 40.008,-17.949 40.008,-40.01 C 40.008,17.948 22.061,0 0,0 m -0.229,121.023 c -44.652,0 -80.978,-36.326 -80.978,-80.978 0,-44.65 36.326,-80.976 80.978,-80.976 44.65,0 80.976,36.326 80.976,80.976 0,44.652 -36.326,80.978 -80.976,80.978" /></g><g
           transform="translate(426.8296,645.2754)"
           id="g192"><path
             id="path194"
             style="fill:#ffffff;fill-opacity:1;fill-rule:nonzero;stroke:none"
             d="m 0,0 -3.577,2.059 -1.746,-3.032 3.541,-2.045 -0.356,-0.453 c -2.821,-3.593 -6.858,-5.892 -11.367,-6.474 l -0.564,-0.073 0,4.107 -3.482,0 0,-4.087 -0.568,0.079 c -4.448,0.616 -8.425,2.908 -11.197,6.452 l -0.355,0.452 3.474,2.013 -1.745,3.029 -3.507,-2.018 -0.218,0.526 c -0.875,2.11 -1.319,4.34 -1.319,6.628 0,2.213 0.422,4.383 1.255,6.449 l 0.215,0.534 3.475,-2.006 1.763,3.031 -3.498,2.014 0.347,0.453 c 2.779,3.628 6.795,5.971 11.31,6.597 l 0.568,0.079 0,-4.01 3.482,0 0,4.029 0.563,-0.073 c 4.578,-0.589 8.655,-2.94 11.481,-6.62 l 0.347,-0.453 -3.558,-2.049 1.758,-3.038 3.547,2.049 0.216,-0.533 C 1.122,11.546 1.546,9.375 1.546,7.163 1.546,4.869 1.1,2.636 0.219,0.524 L 0,0 Z m -17.181,26.512 c -10.645,0 -19.275,-8.631 -19.275,-19.277 0,-10.645 8.63,-19.276 19.275,-19.276 10.646,0 19.277,8.631 19.277,19.276 0,10.646 -8.631,19.277 -19.277,19.277" /></g><g
           transform="translate(426.8296,645.2754)"
           id="g196"><path
             id="path198"
             style="fill:none;stroke:#ffffff;stroke-width:1;stroke-linecap:butt;stroke-linejoin:miter;stroke-miterlimit:10;stroke-dasharray:none;stroke-opacity:1"
             d="m 0,0 -3.577,2.059 -1.746,-3.032 3.541,-2.045 -0.356,-0.453 c -2.821,-3.593 -6.858,-5.892 -11.367,-6.474 l -0.564,-0.073 0,4.107 -3.482,0 0,-4.087 -0.568,0.079 c -4.448,0.616 -8.425,2.908 -11.197,6.452 l -0.355,0.452 3.474,2.013 -1.745,3.029 -3.507,-2.018 -0.218,0.526 c -0.875,2.11 -1.319,4.34 -1.319,6.628 0,2.213 0.422,4.383 1.255,6.449 l 0.215,0.534 3.475,-2.006 1.763,3.031 -3.498,2.014 0.347,0.453 c 2.779,3.628 6.795,5.971 11.31,6.597 l 0.568,0.079 0,-4.01 3.482,0 0,4.029 0.563,-0.073 c 4.578,-0.589 8.655,-2.94 11.481,-6.62 l 0.347,-0.453 -3.558,-2.049 1.758,-3.038 3.547,2.049 0.216,-0.533 C 1.122,11.546 1.546,9.375 1.546,7.163 1.546,4.869 1.1,2.636 0.219,0.524 L 0,0 Z m -17.181,26.512 c -10.645,0 -19.275,-8.631 -19.275,-19.277 0,-10.645 8.63,-19.276 19.275,-19.276 10.646,0 19.277,8.631 19.277,19.276 0,10.646 -8.631,19.277 -19.277,19.277 z" /></g><g
           transform="translate(287.8086,645.1929)"
           id="g200"><path
             id="path202"
             style="fill:#ffffff;fill-opacity:1;fill-rule:nonzero;stroke:none"
             d="m 0,0 -3.577,2.059 -1.746,-3.032 3.541,-2.045 -0.356,-0.453 c -2.821,-3.593 -6.858,-5.892 -11.367,-6.474 l -0.564,-0.073 0,4.107 -3.482,0 0,-4.087 -0.568,0.079 c -4.448,0.616 -8.425,2.908 -11.197,6.452 l -0.355,0.452 3.474,2.013 -1.745,3.029 -3.507,-2.018 -0.218,0.526 c -0.875,2.11 -1.319,4.34 -1.319,6.628 0,2.213 0.422,4.383 1.255,6.449 l 0.215,0.534 3.475,-2.006 1.763,3.031 -3.498,2.014 0.347,0.453 c 2.779,3.628 6.795,5.971 11.31,6.597 l 0.568,0.079 0,-4.01 3.482,0 0,4.029 0.563,-0.073 c 4.578,-0.589 8.655,-2.94 11.481,-6.62 l 0.347,-0.453 -3.558,-2.049 1.758,-3.038 3.547,2.049 0.216,-0.533 C 1.122,11.546 1.546,9.375 1.546,7.163 1.546,4.869 1.1,2.636 0.219,0.524 L 0,0 Z m -17.181,26.512 c -10.645,0 -19.275,-8.631 -19.275,-19.277 0,-10.645 8.63,-19.276 19.275,-19.276 10.646,0 19.277,8.631 19.277,19.276 0,10.646 -8.631,19.277 -19.277,19.277" /></g><g
           transform="translate(287.8086,645.1929)"
           id="g204"><path
             id="path206"
             style="fill:none;stroke:#ffffff;stroke-width:1;stroke-linecap:butt;stroke-linejoin:miter;stroke-miterlimit:10;stroke-dasharray:none;stroke-opacity:1"
             d="m 0,0 -3.577,2.059 -1.746,-3.032 3.541,-2.045 -0.356,-0.453 c -2.821,-3.593 -6.858,-5.892 -11.367,-6.474 l -0.564,-0.073 0,4.107 -3.482,0 0,-4.087 -0.568,0.079 c -4.448,0.616 -8.425,2.908 -11.197,6.452 l -0.355,0.452 3.474,2.013 -1.745,3.029 -3.507,-2.018 -0.218,0.526 c -0.875,2.11 -1.319,4.34 -1.319,6.628 0,2.213 0.422,4.383 1.255,6.449 l 0.215,0.534 3.475,-2.006 1.763,3.031 -3.498,2.014 0.347,0.453 c 2.779,3.628 6.795,5.971 11.31,6.597 l 0.568,0.079 0,-4.01 3.482,0 0,4.029 0.563,-0.073 c 4.578,-0.589 8.655,-2.94 11.481,-6.62 l 0.347,-0.453 -3.558,-2.049 1.758,-3.038 3.547,2.049 0.216,-0.533 C 1.122,11.546 1.546,9.375 1.546,7.163 1.546,4.869 1.1,2.636 0.219,0.524 L 0,0 Z m -17.181,26.512 c -10.645,0 -19.275,-8.631 -19.275,-19.277 0,-10.645 8.63,-19.276 19.275,-19.276 10.646,0 19.277,8.631 19.277,19.276 0,10.646 -8.631,19.277 -19.277,19.277 z" /></g><g
           transform="translate(428.229,624.5928)"
           id="g208"><path
             id="path210"
             style="fill:#ec1e26;fill-opacity:1;fill-rule:nonzero;stroke:none"
             d="m 0,0 -1.65,2.505 c 5.289,3.484 9.438,8.651 11.684,14.548 l 2.803,-1.067 C 10.37,9.505 5.811,3.828 0,0 m -5.645,4.419 4.693,-9.274 C 8.072,-0.121 14.754,8.141 17.479,17.934 L 7.459,20.616 C 5.612,13.473 1.207,8.027 -5.645,4.419" /></g><g
           transform="translate(288.7065,624.5928)"
           id="g212"><path
             id="path214"
             style="fill:#e41d26;fill-opacity:1;fill-rule:nonzero;stroke:none"
             d="m 0,0 -1.65,2.505 c 5.291,3.485 9.44,8.652 11.683,14.548 l 2.805,-1.067 C 10.371,9.506 5.813,3.828 0,0 m -5.722,4.023 5.131,-7.875 C 8.088,0.847 14.26,8.507 16.438,17.279 L 6.385,19.041 C 4.935,12.652 0.864,7.602 -5.722,4.023" /></g></g></g></g></svg>